<?xml version="1.0" standalone="no"?>
<!DOCTYPE svg PUBLIC "-//W3C//DTD SVG 20010904//EN"
 "http://www.w3.org/TR/2001/REC-SVG-20010904/DTD/svg10.dtd">
<svg version="1.0" xmlns="http://www.w3.org/2000/svg"
 width="300.000000pt" height="261.000000pt" viewBox="0 0 300.000000 261.000000"
 preserveAspectRatio="xMidYMid meet">
<metadata>
Created by potrace 1.16, written by Peter Selinger 2001-2019
</metadata>
<g transform="translate(0.000000,261.000000) scale(0.100000,-0.100000)"
fill="#000000" stroke="none">
<path d="M285 2585 c-50 -30 -85 -81 -92 -133 -5 -37 -8 -40 -42 -46 -45 -7
-118 -67 -137 -113 -22 -51 -18 -141 9 -188 53 -94 170 -127 274 -78 l33 15
159 -148 c87 -82 159 -152 160 -156 1 -5 -80 -8 -179 -8 l-181 0 -24 -26 c-34
-36 -34 -93 -1 -131 l24 -28 184 -3 184 -3 12 -67 c14 -75 63 -195 114 -279
18 -30 72 -97 121 -148 48 -51 87 -95 87 -98 0 -3 -90 -89 -200 -191 l-199
-187 -42 22 c-164 83 -350 -84 -285 -256 21 -53 84 -111 136 -125 31 -8 37
-15 48 -54 39 -148 231 -205 340 -103 58 54 79 157 48 232 l-15 34 66 61 66
60 26 -80 c75 -224 252 -340 515 -340 282 1 465 124 536 360 l16 55 63 -61 63
-60 -16 -32 c-39 -76 -10 -183 67 -246 32 -26 48 -31 106 -34 78 -5 131 16
174 68 23 27 47 86 47 116 0 7 15 15 34 18 50 9 110 58 135 108 84 175 -92
358 -268 278 -52 -24 -32 -37 -216 135 -77 72 -161 150 -187 174 l-47 43 56
48 c145 124 273 344 299 515 l6 45 180 0 c104 0 187 4 199 10 28 16 52 68 44
99 -4 14 -16 36 -27 49 -21 21 -27 22 -210 22 -103 0 -188 4 -188 8 0 5 19 26
43 47 23 21 94 86 157 144 l115 107 40 -20 c91 -46 208 -11 260 78 35 60 35
152 0 212 -26 45 -95 94 -131 94 -16 0 -23 11 -33 51 -47 181 -290 213 -380
50 -29 -52 -32 -132 -7 -182 l17 -33 -103 -97 -103 -97 -34 41 c-95 115 -191
193 -319 257 -126 63 -224 85 -382 84 -149 0 -247 -20 -365 -73 -122 -56 -267
-174 -331 -270 l-26 -41 -109 101 -108 101 16 32 c10 17 17 55 17 86 1 69 -26
124 -83 168 -39 29 -49 32 -114 32 -59 0 -80 -5 -112 -25z m187 -42 c74 -44
95 -150 44 -218 l-28 -36 93 -88 c52 -48 112 -103 133 -122 l39 -36 -35 -84
c-20 -46 -39 -101 -43 -122 -8 -47 12 -60 -193 133 -78 74 -148 137 -153 139
-6 2 -21 -7 -34 -19 -47 -44 -144 -42 -193 3 -106 98 -41 267 103 267 l40 0
-3 43 c-6 87 60 157 150 157 30 0 62 -7 80 -17z m2204 -2 c55 -25 84 -73 84
-140 l0 -51 40 0 c47 0 85 -17 120 -54 19 -21 25 -40 28 -89 4 -57 1 -66 -23
-95 -63 -75 -160 -84 -230 -22 -20 18 -23 15 -180 -131 -88 -81 -162 -149
-165 -149 -3 0 -12 21 -18 48 -7 26 -27 78 -44 116 l-32 68 55 52 c29 28 87
81 127 118 l74 67 -23 32 c-31 44 -36 122 -11 169 20 38 89 80 132 80 14 0 43
-9 66 -19z m-966 -143 c134 -33 275 -113 362 -205 41 -43 148 -191 148 -204 0
-5 -301 -9 -715 -9 -393 0 -715 3 -715 6 0 4 16 33 36 66 74 122 216 249 337
303 164 72 368 88 547 43z m1008 -720 c7 -7 12 -24 12 -38 0 -14 -5 -31 -12
-38 -17 -17 -2389 -17 -2406 0 -17 17 -15 54 4 72 14 14 137 16 1203 16 910 0
1190 -3 1199 -12z m-418 -150 c0 -42 -67 -216 -110 -290 -25 -42 -78 -107
-126 -155 -67 -66 -100 -90 -176 -127 -142 -70 -195 -81 -388 -81 -191 0 -246
11 -380 77 -69 33 -102 58 -176 132 -73 73 -99 108 -136 181 -43 86 -79 183
-93 253 l-7 32 796 0 796 0 0 -22z m-1150 -643 c33 -14 66 -25 74 -25 24 0 27
-15 14 -89 -11 -65 -14 -70 -33 -65 -46 15 -156 76 -162 90 -5 13 34 114 44
114 2 0 30 -11 63 -25z m788 -46 c12 -34 20 -65 17 -69 -5 -8 -128 -61 -171
-74 -19 -6 -22 -1 -33 50 -18 91 -16 101 21 109 17 4 50 16 72 26 64 28 70 25
94 -42z m313 -202 l156 -147 23 25 c51 55 145 56 206 3 107 -94 36 -268 -110
-268 -34 0 -35 -1 -29 -34 8 -50 -27 -117 -76 -144 -78 -44 -169 -19 -208 58
-29 57 -29 94 2 148 l25 44 -99 94 -98 93 -7 83 c-8 91 -30 202 -52 254 -25
60 -15 59 49 -2 34 -33 132 -126 218 -207z m-1245 212 c-22 -52 -46 -193 -46
-265 l0 -64 -72 -68 c-40 -38 -88 -82 -107 -99 l-34 -30 23 -30 c54 -73 28
-183 -52 -224 -106 -54 -223 21 -220 142 l1 49 -46 0 c-128 0 -196 148 -112
245 16 18 43 38 59 45 45 18 113 7 156 -25 l36 -27 46 44 c123 119 375 348
378 345 3 -2 -2 -19 -10 -38z m414 -28 l65 -6 3 -74 c2 -41 -1 -78 -6 -83 -6
-6 -40 -5 -88 2 -136 20 -127 14 -120 78 12 99 14 104 50 96 17 -4 60 -10 96
-13z m288 -63 c6 -40 8 -76 4 -80 -12 -12 -174 -30 -184 -20 -5 5 -8 42 -6 83
l3 74 55 6 c30 3 69 6 86 7 l32 2 10 -72z m-500 -99 c9 -3 9 -20 0 -72 -13
-81 -11 -80 -125 -15 l-75 43 6 58 c3 32 8 62 11 66 2 4 42 -11 87 -34 46 -23
89 -44 96 -46z m775 -11 l2 -52 -95 -48 c-69 -36 -96 -45 -101 -36 -4 7 -10
41 -14 76 -6 57 -5 64 12 68 10 3 54 20 98 37 92 37 94 36 98 -45z m-608 -24
c28 -3 65 -7 83 -10 l33 -5 -3 -77 -3 -77 -53 3 c-29 2 -83 11 -120 20 l-67
17 2 50 c5 89 9 98 46 91 18 -4 55 -9 82 -12z m361 -59 l10 -75 -36 -10 c-52
-15 -170 -31 -181 -24 -5 3 -9 38 -9 79 0 81 2 84 73 86 23 1 56 5 72 9 61 16
61 16 71 -65z m-599 -70 c249 -115 514 -111 771 10 105 50 100 54 81 -65 -30
-189 -159 -324 -346 -360 -80 -16 -270 -8 -340 14 -76 24 -172 92 -214 153
-43 62 -76 161 -85 257 l-7 69 44 -27 c24 -15 67 -38 96 -51z"/>
<path d="M1095 1486 c-44 -19 -102 -89 -115 -138 -37 -134 72 -278 210 -278
148 0 259 157 204 288 -19 46 -68 98 -116 123 -44 22 -137 25 -183 5z"/>
<path d="M1735 1481 c-141 -65 -169 -255 -52 -358 108 -94 278 -58 338 72 22
47 25 132 5 178 -44 104 -186 157 -291 108z"/>
<path d="M1458 1065 c-87 -49 6 -150 95 -104 28 15 37 28 37 55 0 48 -81 78
-132 49z"/>
</g>
</svg>
